<svg width="48" height="48" viewBox="0 0 48 48" xmlns="http://www.w3.org/2000/svg">
  <defs>
    <linearGradient id="gradient" x1="0%" y1="0%" x2="100%" y2="100%">
      <stop offset="0%" style="stop-color:#E57341;stop-opacity:1" />
      <stop offset="100%" style="stop-color:#D4622A;stop-opacity:1" />
    </linearGradient>
  </defs>
  
  <!-- Background rounded square -->
  <rect x="2" y="2" width="44" height="44" rx="8" fill="url(#gradient)"/>
  
  <!-- Form document background -->
  <rect x="10" y="8" width="28" height="32" rx="3" fill="white" opacity="0.2"/>
  
  <!-- Form title/header -->
  <rect x="14" y="14" width="12" height="2.5" rx="1.25" fill="white" opacity="0.9"/>
  <rect x="28" y="14" width="6" height="2.5" rx="1.25" fill="white" opacity="0.7"/>
  
  <!-- Form fields -->
  <rect x="14" y="20" width="20" height="2" rx="1" fill="white" opacity="0.9"/>
  <rect x="14" y="24" width="16" height="2" rx="1" fill="white" opacity="0.8"/>
  <rect x="14" y="28" width="18" height="2" rx="1" fill="white" opacity="0.8"/>
  <rect x="14" y="32" width="14" height="2" rx="1" fill="white" opacity="0.7"/>
  
  <!-- AI magic elements -->
  <circle cx="37" cy="11" r="2.5" fill="#FFE4B5"/>
  <rect x="36" y="9.5" width="2" height="3" rx="1" fill="#FFE4B5"/>
  <rect x="34.5" y="10" width="5" height="2" rx="1" fill="#FFE4B5"/>
  
  <circle cx="40" cy="37" r="1.8" fill="#FFE4B5" opacity="0.8"/>
  <rect x="39.1" y="35.7" width="1.8" height="2.6" rx="0.9" fill="#FFE4B5" opacity="0.8"/>
  <rect x="38.2" y="36.1" width="3.6" height="1.8" rx="0.9" fill="#FFE4B5" opacity="0.8"/>
  
  <!-- Small F logo -->
  <text x="24" y="30" font-family="Arial, sans-serif" font-size="8" font-weight="bold" text-anchor="middle" fill="white" opacity="0.4">F</text>
</svg>